<svg width="128" height="128" viewBox="0 0 128 128" xmlns="http://www.w3.org/2000/svg">
  <!-- IDLE DOWN -->
  <g transform="translate(0,0)">
    <ellipse cx="32" cy="24" rx="24" ry="16" fill="#2e7d32"/>
    <ellipse cx="48" cy="24" rx="20" ry="12" fill="#4caf50"/>
    <ellipse cx="64" cy="32" rx="16" ry="8" fill="#66bb6a"/>
    <rect x="24" y="40" width="48" height="24" rx="8" fill="#1b5e20"/>
    ircle cx="32" cy="20" r="4" fill="#ffeb3b"/>
    ircle cx="48" cy="20" r="4" fill="#ffeb3b"/>
    <path d="M 40 48 Q 48 52 56 48" stroke="#fff" stroke-width="2" fill="none"/>
  </g>
  
  <!-- WALK DOWN Frame 1 -->
  <g transform="translate(64,0)">
    <ellipse cx="32" cy="28" rx="24" ry="16" fill="#2e7d32"/>
    <ellipse cx="48" cy="28" rx="20" ry="12" fill="#4caf50"/>
    <ellipse cx="64" cy="36" rx="16" ry="8" fill="#66bb6a"/>
    <rect x="24" y="44" width="48" height="24" rx="8" fill="#1b5e20"/>
    ircle cx="32" cy="24" r="4" fill="#ffeb3b"/>
    ircle cx="48" cy="24" r="4" fill="#ffeb3b"/>
    <path d="M 40 52 Q 48 56 56 52" stroke="#fff" stroke-width="2" fill="none"/>
  </g>
  
  <!-- Grid lines -->
  <g stroke="#333" stroke-width="1" opacity="0.3">
    e x1="0" y1="64" x2="128" y2="64"/>
    e x1="64" y1="0" x2="64" y2="128"/>
  </g>
</svg>